<svg xmlns="http://www.w3.org/2000/svg" viewBox="0 0 215 49"><defs><style>.cls-1{fill:#2e2e2e;}</style></defs><g id="Layer_2" data-name="Layer 2"><g id="Capa_1" data-name="Capa 1"><path class="cls-1" d="M190.5,49h-.12a.52.52,0,0,1-.37-.61,33.1,33.1,0,0,1,8.71-14.29,43,43,0,0,1,14.38-9.62A50.85,50.85,0,0,1,198,14.22a31.51,31.51,0,0,1-8-13.6.52.52,0,0,1,.37-.61.51.51,0,0,1,.61.37,31,31,0,0,0,7.75,13.14A48.72,48.72,0,0,0,214.67,24a.5.5,0,0,1,0,.95,41.13,41.13,0,0,0-15.22,9.81A32.54,32.54,0,0,0,191,48.62.51.51,0,0,1,190.5,49Z"/><path class="cls-1" d="M214.5,25H.5a.5.5,0,0,1,0-1h214a.5.5,0,0,1,0,1Z"/></g></g></svg>