<svg xmlns="http://www.w3.org/2000/svg" viewBox="0 0 78.65 41"><defs><style>.cls-1{fill:#2e2e2e;}</style></defs><g id="Layer_2" data-name="Layer 2"><g id="Capa_1" data-name="Capa 1"><rect class="cls-1" y="40" width="78.65" height="1"/><path d="M61.69,18.79l.35-.21Z"/><path d="M55,3.17a14,14,0,0,0-4.91.35c-.08-.13-.16-.27-.25-.4A6.91,6.91,0,0,0,41.74.42a7.39,7.39,0,0,0-4.47,4.72c-.21.56-.33,1.14-.51,1.77V.43H33.57V5.51a17.7,17.7,0,0,0-7.39-2.28C11.38,1.82,3.19,23,24.5,25.05c.86.08,1.07-.12,0-.22C3.63,22.85,11.81,2.35,26,3.69a15.47,15.47,0,0,1,7.62,2.84v23.3h3.2V11.61a.23.23,0,0,1,.06.12,16.94,16.94,0,0,0,1.1,3.68,30.72,30.72,0,0,0,4.64,7.42c2,2.42,4.18,4.66,6.39,6.89a.51.51,0,0,0,.35.12h4.9l-.27-.23q-2.59-1.9-5.18-3.82a43.92,43.92,0,0,1-6.61-5.72,21,21,0,0,1-4-5.89L38.1,14l.07,0c.06.07.1.14.17.21A7.72,7.72,0,0,0,44,16.48c1.38,2.49,4.13,4.45,8.36,4.85,4.88.46,7.3-1.3,9.36-2.54a17.14,17.14,0,0,1-9.37,2.31c-4.12-.39-6.77-2.25-8.1-4.63a8.18,8.18,0,0,0,1-.1,7.77,7.77,0,0,0,2.76-1,24.51,24.51,0,0,0,2.94.46c7.36.7,12.61-3,12.92-6.54-.76,3.28-5.84,6.51-11.87,5.94a26.92,26.92,0,0,1-3.14-.49,7.82,7.82,0,0,0,2.07-3,8.94,8.94,0,0,0,.48-4,9.31,9.31,0,0,0-1.09-3.91A13.26,13.26,0,0,1,55,3.43c6.49.61,9,3.19,8.79,5.85C64.44,6.58,62.14,3.84,55,3.17ZM38.79,3A5.37,5.37,0,0,1,42.44.88a4.36,4.36,0,0,1,4.24,2,6.86,6.86,0,0,1,.89,1.72,9,9,0,0,0-4.65,7.87,48.54,48.54,0,0,1-6-4.51A8.48,8.48,0,0,1,38.79,3Zm2.58,12.7a9.44,9.44,0,0,1-3.26-2.38,3.58,3.58,0,0,1-.83-2.07c-.13-.68-.2-1.36-.27-2a34.23,34.23,0,0,0,6,4.3A8.39,8.39,0,0,0,43.72,16,4.86,4.86,0,0,1,41.37,15.71ZM44,16a8.06,8.06,0,0,1-.67-2.28,20.71,20.71,0,0,0,2.78,1.16A4.39,4.39,0,0,1,44,16Zm3.84-4.24a7.11,7.11,0,0,1-1.11,2.42,19.23,19.23,0,0,1-3.48-1.55,9,9,0,0,1,4.46-7.72A9.69,9.69,0,0,1,48,6.57,13.53,13.53,0,0,1,47.8,11.72Z"/></g></g></svg>