<svg xmlns="http://www.w3.org/2000/svg" viewBox="0 0 439.95 126"><defs><style>.cls-1{fill:#fff;}</style></defs><g id="Layer_2" data-name="Layer 2"><g id="Capa_1" data-name="Capa 1"><path class="cls-1" d="M82.56,72.87c-.46,2.45-1,4.77-1.35,7.08A63.06,63.06,0,0,0,81,98.52c1.06,7.32,3.71,13.54,9,18.5a25.21,25.21,0,0,0,13.59,6.4q11.76,1.83,19.85-4.55c4.39-3.49,6.62-8.05,8.1-13.2.55-1.91-.13-3.68-.32-5.55A50,50,0,0,1,135.1,74.5C137.5,69,141,64,146.41,60.75c4.82-2.91,9.93-4.21,15.07-2.49a25.27,25.27,0,0,1,4.53,2.6,6.17,6.17,0,0,1,.79.64c.08-1.77.13-3.41.25-5.06a29.16,29.16,0,0,1,3.66-12.76c2.28-3.88,5.37-6.42,9.61-6.6a9.49,9.49,0,0,1,8.18,4.16,15.74,15.74,0,0,1,3.12,8.8c0,.83,0,1.66,0,2.5q0,37.93,0,70.77v1.16c-.34,0-.59.08-.84.08-3.31,0-6.63,0-10,.08-.75,0-.9-.22-.92-.8-.12-4.91-.16-10-.47-15.08-.65-10.73-2-21.81-5.8-32.76a42.13,42.13,0,0,0-4.83-10,2.2,2.2,0,0,0-.8-.77q.31,4.23.61,8.36c.83,11.23,1.55,21.88.86,32-.32,4.63-.9,9.13-2.71,13.27a18.14,18.14,0,0,1-2.25,3.78c-2.15,2.8-5.39,3.59-9.38,3.27a24.09,24.09,0,0,1-15.15-6.65,27.65,27.65,0,0,1-7.15-11.64c-.1-.31-.21-.62-.34-1-.83,1.95-1.51,3.79-2.43,5.5a22.91,22.91,0,0,1-10.27,10.14c-7.62,3.73-15.94,4.25-24.67,2.37-9.11-2-15.47-6.23-20.06-12.65a35.53,35.53,0,0,1-6.24-18,51,51,0,0,1,1.56-19.25c4.93-16.66,16-28.57,33.42-32.71A38.36,38.36,0,0,1,123.2,42a17.14,17.14,0,0,1,6.73,3.57c4.81,4.12,4.32,10.08,2.1,14.28-1.68,3.18-4.33,5.24-7.18,7a44.69,44.69,0,0,1-15.23,5.66,71.4,71.4,0,0,1-22.06,1C86,73.42,84.35,73.14,82.56,72.87Zm86.27,21.2c-.56-8.88-1.22-18.17-1.61-28a5.75,5.75,0,0,0-2.88-4.93c-.31-.21-.61-.43-.94-.62-3.16-1.8-6.53-2.55-10.26-.92-2.89,1.27-4.71,3.75-6.11,6.49a54.59,54.59,0,0,0-5.16,18.58,74.57,74.57,0,0,0-.18,16.79,44.18,44.18,0,0,0,3.71,14.67,17.77,17.77,0,0,0,6,7.59,10.05,10.05,0,0,0,8.38,1.49,7.83,7.83,0,0,0,5-4.09,27.14,27.14,0,0,0,2.75-9A121.18,121.18,0,0,0,168.83,94.07ZM83,71.44a1.29,1.29,0,0,0,.23.12c1.16.14,2.32.3,3.49.38a59.74,59.74,0,0,0,20.9-1.87c3.72-1.1,7.36-2.48,10.33-5.33a12.19,12.19,0,0,0,3.6-12,10.4,10.4,0,0,0-8.24-8.47c-5.29-1.16-10.33.26-15,3.25a28.73,28.73,0,0,0-7.92,8A52.43,52.43,0,0,0,83,71.44Zm97,28.79.05,0V52.89a30.2,30.2,0,0,0-.1-4.26,21.71,21.71,0,0,0-1.19-5.24c-1.25-3-3.79-3.16-6.08-.55a15.27,15.27,0,0,0-2.85,5.33A40.26,40.26,0,0,0,168,62.29a2.08,2.08,0,0,0,.46,1c1,1.57,2.19,3,3.09,4.66a61.61,61.61,0,0,1,6.23,18.7C178.6,91.23,179.21,95.78,179.94,100.23Z"/><path class="cls-1" d="M0,16.45c3.93.47,7.78.9,11.7,1.3v25c.65-2.26,1.1-4.41,1.85-6.42,3-8,8.13-14.06,16.4-17,11-4,23.24,1.55,29.75,13.62a46.09,46.09,0,0,1,5.46,19.49C65.5,58,65.27,63.26,63.39,68Q57.72,82.16,42.57,82.81c-9.72.36-18.07-3.92-25.11-12.12a7.62,7.62,0,0,1-.59-.89l-.28.12c.12.31.22.63.35.94A79.18,79.18,0,0,0,31.43,94c7.24,8.26,15.63,14.52,24.22,19.81,6.32,3.88,12.67,7.31,19,10.45.27.13.52.29,1,.54h-1.1c-5.62,0-11.25,0-16.87-.07a2.59,2.59,0,0,1-1.29-.32A129.72,129.72,0,0,1,33,103.23,101.33,101.33,0,0,1,16,75.08a71.91,71.91,0,0,1-4-14.33.74.74,0,0,0-.23-.48v64.06L0,124.17ZM12.34,49.07c.4,3.45.63,6.88,1.24,10.29.51,2.83.89,5.65,3.07,8.31,3.54,4.31,7.16,8.27,11.94,10.81,7,3.7,13.85,3,18.62-2a21.07,21.07,0,0,0,4.92-9.45c1.63-6.22,1.67-13,.86-20.1a39.85,39.85,0,0,0-5-16c-3.81-6.48-9-9.88-15.54-9.51-5.58.3-9.91,3.2-13.36,7.36C14.34,34.58,12.52,41.38,12.34,49.07Z"/><path class="cls-1" d="M439.94,124.3c-4-.06-7.76-.11-11.64-.15,0-.41,0-.75,0-1.09-.07-10.08-.34-20-1.31-29.84-1-10.27-2.55-20.44-6.06-30.3-1-2.88-2.47-5.66-3.74-8.43-.17-.36-.43-.7-.77-1.26,0,.43,0,.63,0,.84.55,10.42,1.22,21.29,1.62,32.5a111.43,111.43,0,0,1-1.4,22.67A35.74,35.74,0,0,1,412.86,121c-2.24,4-5.42,5.42-9.41,4.87-6.45-.86-11.25-5.18-15.09-11.53-4.46-7.35-6.84-15.69-8.15-24-1.66-10.67-1.44-20.6,1.07-29.59,1.64-5.88,4.29-10.83,8.86-14.27,5.2-3.9,11.27-4.72,18.1-2.19a15.6,15.6,0,0,1,5.92,4.29l.63.7a1.08,1.08,0,0,0,.26.12c.07-1.35.11-2.68.2-4,.29-4.17,1.23-8,3.7-11A9,9,0,0,1,428.56,31c3.61.8,6.3,3.13,8.35,6.41a21,21,0,0,1,3,11.56q0,37.06,0,74.14Zm-22.87-40c-.6-11.21-1.2-22-1.82-32.4a1.76,1.76,0,0,0-.33-.82,19.32,19.32,0,0,0-6.06-5.37c-4.46-2.43-8.49-2.14-11.67.9-2.29,2.2-3.52,5.16-4.55,8.28-2.12,6.37-2.92,13.41-3,21A119.34,119.34,0,0,0,393,107.4c1.23,4.86,2.87,9.62,5.67,13.57,2.49,3.52,5.53,5.24,9.33,3.82,2.55-1,4-3.32,5.06-6a48.81,48.81,0,0,0,2.74-12A190.93,190.93,0,0,0,417.07,84.33ZM428.2,95.39l.06,0V43.9c0-.66-.05-1.34-.07-2a14.55,14.55,0,0,0-1.2-5.73c-1.42-3-3.9-3.9-6.09-2.08a10.67,10.67,0,0,0-2.6,3.39c-1.95,3.91-2.21,8.44-2.09,13.18a2.71,2.71,0,0,0,.44,1c1.35,2.49,2.91,5,4,7.6,3.32,7.8,4.92,15.95,6.07,24.19C427.31,87.41,427.72,91.39,428.2,95.39Z"/><path class="cls-1" d="M265.56,31.17l-7,.67v-1.1l7-.66V0h1.11c0,.3.05.6.06.9A54.19,54.19,0,0,0,269,16.8a26,26,0,0,0,7.72,11.69,1.91,1.91,0,0,0,1.6.47q9.56-.83,19.12-1.46l1.28-.08c0,.32,0,.61.07,1-7.17.48-14.24,1-21.41,1.65v70.11a37.9,37.9,0,0,0,2,13.42c2.48,6.68,7.75,10.5,13.57,9.13,4.5-1.06,7.86-4.43,10.35-9.23a31,31,0,0,0,3.38-14c0-.86.18-1.3,1.14-.93-.12,1.71-.15,3.51-.4,5.3-1.24,9.16-5,16.4-12.23,19.92-8,4-17.33.52-22.92-7.12a35,35,0,0,1-6.55-19c-.13-2.08-.15-4.16-.15-6.23q0-31.95,0-58.92Z"/><path class="cls-1" d="M324.29,26.12c1.57-.06,3-.1,4.48-.14,2.08-.06,4.16-.08,6.24-.17.77,0,1.12.13,1.35.8q8.33,23.79,16.72,56.85c2.28,9,4.56,18.56,6.85,28.56.06.28.14.56.25,1a3,3,0,0,0,.3-.51c6-14.43,11.6-27.79,15.92-40.58A95.71,95.71,0,0,0,381.54,49a47.12,47.12,0,0,0-3-21.43c-.12-.28-.22-.58-.32-.87a1,1,0,0,1,1.39.62,46.82,46.82,0,0,1,3.42,20.53c-.5,11-3.75,22-8,33.61-4.67,12.88-10.19,26.53-15.95,41.24-.26.67-.56.93-1.13.92-2,0-4-.09-6.05,0-.93.05-1.32-.32-1.59-1.57q-5.53-25.38-11.16-46.63c-4.87-18.48-9.74-34.5-14.62-48.36C324.49,26.78,324.41,26.5,324.29,26.12Z"/><path class="cls-1" d="M254.8,54.76l-1.2.15c.06-.57.13-1.11.17-1.64.33-4.55,0-8.87-1.85-12.71-3.45-7-10.95-9.36-19-5.86-6.07,2.67-10.7,7.16-14.34,12.8a56.2,56.2,0,0,0-8.68,25c-1,10.07-.61,19.68,2,29,1.57,5.6,3.88,10.85,8,15.3,2.94,3.2,6.43,5.65,10.95,6.28,4.16.57,7.91-.69,11.43-3,5.43-3.63,9.14-9.07,12-15.34a58.22,58.22,0,0,0,4.85-23c0-.37,0-.74,0-1.18l1.27-.2a49.33,49.33,0,0,1,0,5.7c-1.3,12.38-5.8,23.93-14.35,32.81-5.51,5.72-12.06,7.74-19.47,7.11-11.72-1-19.06-7.51-23.82-16.77a48.83,48.83,0,0,1-4.69-17,68.26,68.26,0,0,1,0-16.29c1.68-13.65,7.36-26.28,18.51-36C222,35.1,228.2,32,235.16,31.2s12.7,1.23,16.63,6.46A18.29,18.29,0,0,1,255,47.22,26,26,0,0,1,254.8,54.76Z"/><path class="cls-1" d="M318.15,123.6l-11.67,0V27c3.92-.22,7.77-.42,11.67-.58Z"/><path class="cls-1" d="M312.1,16.08l-6-5.91,6-5.92,6,5.92Z"/></g></g></svg>